HIERARCHY
ROOT Hips
{
	OFFSET -0.179506 -22.333345 2.821913
	CHANNELS 6 Xposition Yposition Zposition Zrotation Yrotation Xrotation 
	JOINT LeftUpLeg
	{
		OFFSET 6.951974 -9.140623 -0.681533
		CHANNELS 3 Zrotation Yrotation Xrotation
		JOINT LeftLeg
		{
			OFFSET 3.427654 -37.519855 -0.449580
			CHANNELS 3 Zrotation Yrotation Xrotation
			JOINT LeftFoot
			{
				OFFSET -1.359570 -39.796059 -4.369333
				CHANNELS 3 Zrotation Yrotation Xrotation
				JOINT LeftToe
				{
					OFFSET 2.635814 -5.579078 11.928840
					CHANNELS 3 Zrotation Yrotation Xrotation
					End Site
					{
						OFFSET 0.000000 0.000000 0.000000
					}
				}
			}
		}
	}
	JOINT RightUpLeg
	{
		OFFSET -6.767048 -9.052170 -0.431982
		CHANNELS 3 Zrotation Yrotation Xrotation
		JOINT RightLeg
		{
			OFFSET -3.829005 -38.256897 -0.885003
			CHANNELS 3 Zrotation Yrotation Xrotation
			JOINT RightFoot
			{
				OFFSET 1.577377 -39.841461 -4.231180
				CHANNELS 3 Zrotation Yrotation Xrotation
				JOINT RightToe
				{
					OFFSET -2.537174 -4.814398 12.334795
					CHANNELS 3 Zrotation Yrotation Xrotation
					End Site
					{
						OFFSET 0.000000 0.000000 0.000000
					}
				}
			}
		}
	}
	JOINT Spine
	{
		OFFSET -0.253288 10.896323 -2.669631
		CHANNELS 3 Zrotation Yrotation Xrotation
		JOINT Spine1
		{
			OFFSET 0.548704 13.518043 0.109247
			CHANNELS 3 Zrotation Yrotation Xrotation
			JOINT Spine2
			{
				OFFSET 0.145701 5.292222 2.542457
				CHANNELS 3 Zrotation Yrotation Xrotation
				JOINT Neck
				{
					OFFSET -0.277840 21.387037 -4.285703
					CHANNELS 3 Zrotation Yrotation Xrotation
					JOINT Head
					{
						OFFSET 0.515184 6.496960 5.134897
						CHANNELS 3 Zrotation Yrotation Xrotation
						End Site
						{
							OFFSET 0.000000 0.000000 0.000000
						}
					}
				}
				JOINT LeftShoulder
				{
					OFFSET 7.884473 12.174932 -3.408961
					CHANNELS 3 Zrotation Yrotation Xrotation
					JOINT LeftArm
					{
						OFFSET 9.097692 3.046888 -0.886815
						CHANNELS 3 Zrotation Yrotation Xrotation
						JOINT LeftForeArm
						{
							OFFSET 25.961220 -1.277207 -2.745643
							CHANNELS 3 Zrotation Yrotation Xrotation
							JOINT LeftHand
							{
								OFFSET 24.923361 0.898606 -0.117091
								CHANNELS 3 Zrotation Yrotation Xrotation
								End Site
								{
									OFFSET 0.000000 0.000000 0.000000
								}
							}
						}
					}
				}
				JOINT RightShoulder
				{
					OFFSET -8.175920 11.883285 -3.861528
					CHANNELS 3 Zrotation Yrotation Xrotation
					JOINT RightArm
					{
						OFFSET -9.601238 3.255117 -0.914307
						CHANNELS 3 Zrotation Yrotation Xrotation
						JOINT RightForeArm
						{
							OFFSET -25.374195 -1.332924 -2.140099
							CHANNELS 3 Zrotation Yrotation Xrotation
							JOINT RightHand
							{
								OFFSET -25.529810 0.777228 -0.555919
								CHANNELS 3 Zrotation Yrotation Xrotation
								End Site
								{
									OFFSET 0.000000 0.000000 0.000000
								}
							}
						}
					}
				}
			}
		}
	}
}
MOTION
Frames: 10
Frame Time: 0.033333
-84.251717 105.661644 89.204994 46.280029 6.373814 88.726028 3.818940 0.243568 -2.289322 -14.864131 -14.866081 38.377460 7.396228 4.473323 -33.192999 nan nan nan -0.662345 7.950498 -29.734323 -1.996418 -5.952387 71.596576 4.288055 -6.211292 -10.092957 nan nan nan 0.565909 -7.035634 24.501438 6.442476 -2.027610 -5.134303 4.195291 -3.776514 0.927228 0.843794 6.629102 -14.719097 1.675044 8.606356 -12.993615 -21.472677 -7.834356 -2.744492 -32.091360 -11.946168 6.218682 158.567027 -63.843923 -132.089387 -13.378969 -14.427116 -4.137214 19.214111 -2.175700 -5.470207 34.414147 -12.761510 16.563604 162.006981 80.431405 -172.760583 16.029587 13.762944 -9.858074 
-85.633347 107.088158 88.892189 46.087738 5.411302 88.946768 2.916145 0.178194 -5.105215 -14.858323 -13.000300 40.017014 8.070698 3.821921 -32.808013 nan nan nan -1.400218 7.218872 -28.241396 -1.892555 -5.127473 72.732173 3.967172 -6.681279 -9.256753 nan nan nan -0.081157 -5.932272 23.964648 6.186428 -1.863920 -4.378617 4.076288 -3.949514 0.568091 1.043422 6.033549 -15.055890 1.638865 8.173992 -13.068760 -22.443241 -6.762346 -2.282069 -34.145841 -11.175103 6.326504 159.757389 -64.798669 -132.674022 -13.924083 -13.809924 -5.050267 20.281227 -1.960135 -5.460443 34.927801 -10.344274 16.312712 170.078935 80.979282 -164.080342 16.125349 12.134486 -7.778564 
-86.968155 108.478386 88.620560 45.813302 4.410740 89.178071 1.919155 0.069638 -7.750795 -14.581421 -11.119311 41.307350 8.761284 3.202177 -32.246391 nan nan nan -2.047210 6.433423 -26.591442 -1.763507 -4.089443 73.594255 3.925791 -6.692013 -8.649864 nan nan nan -0.654693 -4.913266 23.531479 5.802599 -1.781371 -4.095398 3.883456 -4.023798 0.556800 1.204835 5.329417 -15.645197 1.683478 7.773282 -12.898287 -23.204624 -5.347326 -2.106899 -36.308173 -10.179793 6.507261 161.477037 -65.849255 -133.973072 -15.128181 -13.589508 -6.303770 21.149617 -1.715171 -5.555232 35.926514 -7.864094 15.930534 177.780303 81.414935 -155.828059 17.909993 11.143309 -4.931992 
-88.227234 109.799751 88.464073 45.754642 3.692563 89.349301 1.183312 -0.261550 -10.098867 -14.239175 -9.606256 42.430007 9.109876 2.532702 -31.492638 nan nan nan -2.366764 5.279642 -24.490696 -1.667549 -2.987566 73.845451 4.018502 -6.662805 -7.875484 nan nan nan -0.974928 -3.936394 23.154342 5.545934 -2.015405 -4.179618 3.717164 -3.692508 0.538206 1.277792 4.364838 -15.164247 1.830050 7.339191 -13.074351 -23.948563 -4.534495 -1.621467 -38.526341 -8.497449 6.306857 163.149971 -66.984717 -135.497282 -17.585385 -13.092792 -6.710933 22.032204 -1.362113 -5.559285 36.551197 -5.756023 14.664089 -172.493337 80.716595 -143.305689 21.833722 6.984799 4.768247 
-89.427711 111.023666 88.461235 45.743820 3.302796 89.205105 0.773768 -0.241936 -11.943228 -14.083629 -8.852102 43.579422 8.937551 1.992516 -30.934703 nan nan nan -2.306258 4.112251 -21.583515 -1.801500 -1.994822 73.337993 4.087552 -6.563387 -7.094902 nan nan nan -0.945259 -3.163767 23.281568 5.189790 -2.081947 -4.708205 3.638187 -3.456065 0.647571 1.318064 3.384716 -14.511377 1.846654 6.966420 -13.346112 -24.724966 -3.335920 -1.305590 -40.529459 -6.674480 6.106251 165.614090 -68.442870 -137.407664 -19.457670 -13.331431 -7.717701 22.481003 -1.218103 -5.822476 36.949711 -3.846790 13.717144 -171.721772 80.679807 -141.538600 22.810493 5.791091 7.673080 
-90.540794 112.232491 88.477501 45.821048 2.914148 88.923870 0.254083 -0.419401 -13.539469 -13.800617 -8.164909 44.592448 8.909526 1.565428 -30.500631 nan nan nan -2.494843 2.951674 -18.288846 -1.869452 -1.229068 72.383586 4.259308 -6.217541 -6.315019 nan nan nan -0.815801 -2.432224 22.824283 4.901057 -2.331478 -4.412220 3.290172 -2.994408 0.777585 1.701438 2.985376 -14.353997 1.672186 6.170622 -12.966615 -24.695480 -2.087269 -0.916530 -42.858943 -5.173633 6.067352 168.159004 -70.142146 -138.962892 -20.251619 -13.842468 -8.876158 22.580991 -1.236401 -6.310560 37.723962 -2.128113 13.266183 -170.752374 81.130350 -140.940903 22.012004 7.317768 5.218258 
-91.779266 113.477867 88.486176 44.956307 2.508710 88.461421 -0.124395 0.015350 -14.794879 -13.531414 -7.256954 45.179671 9.150089 1.177707 -29.898781 nan nan nan -2.543848 2.541672 -15.260519 -1.793224 -0.125416 71.476934 4.476095 -6.128208 -5.527896 nan nan nan -0.962296 -1.789719 22.855658 4.410376 -2.014397 -4.617806 2.979350 -2.253012 1.409071 2.120350 2.660778 -14.858146 1.595642 5.401271 -12.022059 -24.299377 -0.607068 -1.186911 -44.897396 -3.500574 5.959817 172.268232 -71.755045 -142.211369 -20.751624 -13.980170 -9.945532 22.328216 -0.743661 -6.828756 39.156398 -0.417813 12.946657 -166.898756 81.314799 -137.380947 21.430961 8.269734 3.618724 
-92.960365 114.647125 88.544914 44.074733 2.288868 87.993898 -0.213528 0.445130 -15.843614 -13.215186 -6.305406 45.520581 9.119641 0.532975 -29.227206 nan nan nan -2.437171 2.161448 -12.024765 -1.654344 0.981002 70.065075 4.458823 -5.794377 -4.613506 nan nan nan -0.867048 -1.130537 22.780575 4.009290 -1.649152 -4.711698 2.662008 -1.513538 1.829367 2.186966 1.855131 -14.795526 1.656547 4.841502 -11.477676 -24.203776 0.768718 -1.474766 -46.191334 -1.534222 6.030164 176.281681 -72.960539 -145.886220 -22.253617 -14.002109 -10.610369 21.983630 -0.274588 -7.256734 40.368782 0.845948 12.635966 -162.041737 81.045799 -132.284450 22.812039 7.916255 3.798588 
-94.164139 115.796066 88.631371 43.392633 2.101507 87.849692 -0.344685 0.264678 -17.204708 -12.614893 -5.277126 45.698499 8.950621 0.055066 -28.430261 nan nan nan -2.335723 1.914381 -9.083752 -1.549206 1.829140 68.269607 4.381594 -5.463313 -3.670457 nan nan nan -0.771270 -0.286768 22.258109 3.736955 -1.304766 -4.763512 2.430616 -0.943670 2.230300 2.209787 1.108785 -14.478153 1.648911 4.161533 -10.985398 -24.234659 1.936296 -1.435233 -46.887259 0.403324 6.289098 179.483438 -73.773400 -149.243883 -23.733209 -13.992004 -9.864684 21.745284 0.016809 -7.660604 41.372707 2.205647 12.408831 -158.420260 80.863075 -129.219250 24.039992 7.490090 4.014113 
-95.342430 116.949081 88.773193 42.726072 1.860580 87.789274 -0.573117 -0.036300 -18.498782 -12.025343 -4.414089 45.616760 8.937750 -0.161945 -27.354444 nan nan nan -2.428733 1.726855 -6.265115 -1.265995 2.640886 66.184616 4.563212 -5.182007 -2.790650 nan nan nan -0.731749 0.515432 21.894711 3.447163 -0.980645 -5.246649 2.208403 -0.206634 2.606622 2.321882 0.344233 -13.991127 1.758423 3.592707 -10.280861 -24.231086 2.891709 -1.156029 -47.125053 2.520870 6.720740 -177.532485 -74.222489 -152.221033 -24.077609 -14.167212 -8.714782 21.495412 0.487166 -7.715291 42.114113 3.149473 12.198683 -154.676676 80.382497 -126.112810 24.624709 7.503381 3.907074 
